<svg width="30" height="30" viewBox="0 0 30 30" fill="none" xmlns="http://www.w3.org/2000/svg">
<path d="M23.0958 12C24.5208 12 27 13.3594 27 15C27 16.6875 24.5208 18 23.0958 18H18.2375L14.05 26.2453C13.8125 26.7141 13.3708 27 12.8917 27H10.55C10.1083 27 9.7875 26.5219 9.90833 26.0438L11.95 18H7.66667L5.86667 20.7C5.74167 20.8875 5.54167 21 5.33333 21H3.58333C3.25833 21 3 20.7047 3 20.3438C3 20.2828 3.00833 20.2219 3.02083 20.1609L4.33333 15L3.02083 9.83906C3.00417 9.77813 3 9.71719 3 9.65625C3 9.29063 3.2625 9 3.58333 9H5.33333C5.54167 9 5.74167 9.1125 5.86667 9.3L7.66667 12H11.9542L9.9125 3.95625C9.7875 3.47813 10.1083 3 10.55 3H12.8917C13.3708 3 13.8125 3.29063 14.05 3.75469L18.2375 12H23.0958Z" fill="#07195F"/>
</svg>
