<svg width="30" height="30" viewBox="0 0 30 30" fill="none" xmlns="http://www.w3.org/2000/svg">
<path d="M13.125 6C12.5016 6 12 6.50156 12 7.125C12 7.74844 12.5016 8.25 13.125 8.25H13.875V9.81094C8.60625 10.3688 4.5 14.8313 4.5 20.25H25.5C25.5 14.8313 21.3938 10.3688 16.125 9.81094V8.25H16.875C17.4984 8.25 18 7.74844 18 7.125C18 6.50156 17.4984 6 16.875 6H15H13.125ZM4.125 21.75C3.50156 21.75 3 22.2516 3 22.875C3 23.4984 3.50156 24 4.125 24H25.875C26.4984 24 27 23.4984 27 22.875C27 22.2516 26.4984 21.75 25.875 21.75H4.125Z" fill="#07195F"/>
</svg>
