<svg width="30" height="30" viewBox="0 0 30 30" fill="none" xmlns="http://www.w3.org/2000/svg">
<path d="M6.6 7.28571C6.6 6.57455 7.13625 6 7.8 6H9C9.66375 6 10.2 6.57455 10.2 7.28571V13.7143V16.2857V22.7143C10.2 23.4254 9.66375 24 9 24H7.8C7.13625 24 6.6 23.4254 6.6 22.7143V20.1429H5.4C4.73625 20.1429 4.2 19.5683 4.2 18.8571V16.2857C3.53625 16.2857 3 15.7112 3 15C3 14.2888 3.53625 13.7143 4.2 13.7143V11.1429C4.2 10.4317 4.73625 9.85714 5.4 9.85714H6.6V7.28571ZM23.4 7.28571V9.85714H24.6C25.2638 9.85714 25.8 10.4317 25.8 11.1429V13.7143C26.4638 13.7143 27 14.2888 27 15C27 15.7112 26.4638 16.2857 25.8 16.2857V18.8571C25.8 19.5683 25.2638 20.1429 24.6 20.1429H23.4V22.7143C23.4 23.4254 22.8638 24 22.2 24H21C20.3363 24 19.8 23.4254 19.8 22.7143V16.2857V13.7143V7.28571C19.8 6.57455 20.3363 6 21 6H22.2C22.8638 6 23.4 6.57455 23.4 7.28571ZM17.6 13.7143C18.1523 13.7143 18.6 14.162 18.6 14.7143V15.2857C18.6 15.838 18.1523 16.2857 17.6 16.2857H12.4C11.8477 16.2857 11.4 15.838 11.4 15.2857V14.7143C11.4 14.162 11.8477 13.7143 12.4 13.7143H17.6Z" fill="#07195F"/>
</svg>
