<svg width="30" height="30" viewBox="0 0 30 30" fill="none" xmlns="http://www.w3.org/2000/svg">
<path d="M6.6 7.28571C6.6 6.57455 7.13625 6 7.8 6H19.8H22.2C24.8513 6 27 8.30223 27 11.1429C27 13.9835 24.8513 16.2857 22.2 16.2857H21C21 18.4152 19.3875 20.1429 17.4 20.1429H10.2C8.2125 20.1429 6.6 18.4152 6.6 16.2857V7.28571ZM21 13.7143H22.2C23.5238 13.7143 24.6 12.5612 24.6 11.1429C24.6 9.72455 23.5238 8.57143 22.2 8.57143H21V13.7143ZM4.2 21.4286H23.4C24.0638 21.4286 24.6 22.0031 24.6 22.7143C24.6 23.4254 24.0638 24 23.4 24H4.2C3.53625 24 3 23.4254 3 22.7143C3 22.0031 3.53625 21.4286 4.2 21.4286Z" fill="#07195F"/>
</svg>
