<svg width="30" height="30" viewBox="0 0 30 30" fill="none" xmlns="http://www.w3.org/2000/svg">
<path d="M15.8994 11.1914L16.862 5.77344C16.9411 5.32812 17.3537 5 17.837 5C18.1495 5 18.4412 5.13672 18.6287 5.37109L19.3329 6.25H21.5039C22.0331 6.25 22.5414 6.44922 22.9165 6.80078L23.6665 7.5H25.9999C26.5541 7.5 27 7.91797 27 8.4375V9.375C27 11.1016 25.5083 12.5 23.6665 12.5H22.3331H21.6664H20.7788L20.5663 13.6914L15.8994 11.1914ZM20.333 15.0039V23.75C20.333 24.4414 19.7371 25 18.9996 25H17.6662C16.9286 25 16.3328 24.4414 16.3328 23.75V19.25C15.3327 19.7305 14.1993 20 12.9993 20C11.7992 20 10.6658 19.7305 9.66575 19.25V23.75C9.66575 24.4414 9.06989 25 8.33235 25H6.99895C6.26141 25 5.66554 24.4414 5.66554 23.75V14.7578C4.46548 14.332 3.52376 13.3789 3.19875 12.1602L3.0404 11.5547C2.86123 10.8867 3.29458 10.207 4.01129 10.0391C4.72799 9.87109 5.44887 10.2773 5.62804 10.9492L5.79055 11.5547C5.93639 12.1094 6.46975 12.5 7.08228 12.5H8.33235H8.99905H15.6577L20.333 15.0039ZM22.3331 8.125C22.3331 7.95924 22.2628 7.80027 22.1378 7.68306C22.0128 7.56585 21.8432 7.5 21.6664 7.5C21.4896 7.5 21.32 7.56585 21.195 7.68306C21.0699 7.80027 20.9997 7.95924 20.9997 8.125C20.9997 8.29076 21.0699 8.44973 21.195 8.56694C21.32 8.68415 21.4896 8.75 21.6664 8.75C21.8432 8.75 22.0128 8.68415 22.1378 8.56694C22.2628 8.44973 22.3331 8.29076 22.3331 8.125Z" fill="#07195F"/>
</svg>
