<svg width="30" height="30" viewBox="0 0 30 30" fill="none" xmlns="http://www.w3.org/2000/svg">
<g clip-path="url(#clip0_845_2178)">
<path d="M10.6292 14.5297C12.0333 15.5 13.25 16.7844 14.2042 18.3031C14.4958 18.7672 14.7625 19.2547 15 19.7563C15.2375 19.25 15.5042 18.7672 15.7958 18.3031C16.75 16.7844 17.9667 15.5 19.3708 14.5297C21.2333 13.2406 23.4208 12.5 25.75 12.5H26.1625C26.625 12.5 27 12.9219 27 13.4422C27 20.3797 22.0042 26 15.8375 26H15H14.1625C7.99583 26 3 20.3797 3 13.4422C3 12.9219 3.375 12.5 3.8375 12.5H4.25C6.57917 12.5 8.76667 13.2406 10.6292 14.5297ZM15.5625 5.2625C16.2167 6.05469 18.1083 8.62813 19.0792 12.9781C17.4958 13.9906 16.1042 15.3594 15 16.9906C13.8958 15.3594 12.5042 13.9953 10.9208 12.9781C11.8875 8.62813 13.7792 6.05469 14.4375 5.2625C14.5833 5.08906 14.7875 5 15 5C15.2125 5 15.4167 5.08906 15.5625 5.2625Z" fill="#07195F"/>
</g>
<defs>
<clipPath id="clip0_845_2178">
<rect width="30" height="30" fill="white"/>
</clipPath>
</defs>
</svg>
