<svg width="30" height="30" viewBox="0 0 30 30" fill="none" xmlns="http://www.w3.org/2000/svg">
<path d="M5.40039 7.875C5.40039 6.83944 6.20628 6 7.20039 6H22.8004C23.7945 6 24.6004 6.83944 24.6004 7.875V14.75H5.40039V7.875Z" stroke="#333" stroke-width="2" stroke-linecap="round" stroke-linejoin="round"/>
<path d="M4.19922 22.25V24.75" stroke="#333" stroke-width="2" stroke-linecap="round" stroke-linejoin="round"/>
<path d="M25.8008 22.25V24.75" stroke="#333" stroke-width="2" stroke-linecap="round" stroke-linejoin="round"/>
<path d="M12.25 10H8.75C7.78347 10 7 11.3431 7 13V15H14V13C14 11.3431 13.2165 10 12.25 10Z" stroke="#333" stroke-width="2" stroke-linecap="round" stroke-linejoin="round"/>
<path d="M21.25 10H17.75C16.7835 10 16 11.3431 16 13V15H23V13C23 11.3431 22.2165 10 21.25 10Z" stroke="#333" stroke-width="2" stroke-linecap="round" stroke-linejoin="round"/>
<path d="M3 16.625C3 15.5894 3.80589 14.75 4.8 14.75H25.2C26.1941 14.75 27 15.5894 27 16.625V22.25H3V16.625Z" fill="#333" stroke="#333" stroke-width="2" stroke-linecap="round" stroke-linejoin="round"/>
</svg>
