<svg width="30" height="30" viewBox="0 0 30 30" fill="none" xmlns="http://www.w3.org/2000/svg">
<path d="M4 6.42857C4 5.08978 5.08978 4 6.42857 4H23.5714C24.9102 4 26 5.08979 26 6.42857V23.5714C26 24.9102 24.9102 26 23.5714 26H6.42857C5.08979 26 4 24.9102 4 23.5714V6.42857ZM15.8571 14H14.2857V12.5714H15.8571C16.2531 12.5714 16.5714 12.8898 16.5714 13.2857C16.5714 13.6816 16.2531 14 15.8571 14ZM14.2857 19.4286H15.8571C19.2487 19.4286 22 16.6773 22 13.2857C22 9.89414 19.2487 7.14286 15.8571 7.14286H12C10.2638 7.14286 8.85714 8.5495 8.85714 10.2857V16.7143V20.1429C8.85714 21.6434 10.0709 22.8571 11.5714 22.8571C13.0719 22.8571 14.2857 21.6434 14.2857 20.1429V19.4286Z" fill="#333" stroke="#333" stroke-width="2"/>
</svg>
