<svg width="30" height="30" viewBox="0 0 30 30" fill="none" xmlns="http://www.w3.org/2000/svg">
<path d="M5.3773 5C4.82304 5 4.32034 5.30469 4.10551 5.77344C3.89068 6.24219 4.01099 6.77734 4.40198 7.13672L13.6268 15.5195V22.5H10.8769C10.1164 22.5 9.50203 23.0586 9.50203 23.75C9.50203 24.4414 10.1164 25 10.8769 25H15.0017H19.1264C19.8869 25 20.5013 24.4414 20.5013 23.75C20.5013 23.0586 19.8869 22.5 19.1264 22.5H16.3766V15.5195L25.5971 7.13281C25.9924 6.77344 26.1084 6.23828 25.8935 5.76953C25.6787 5.30078 25.1803 5 24.626 5H5.3773ZM11.4484 10L8.69857 7.5H21.3091L18.5593 10H11.4484Z" fill="#333"/>
</svg>
