<svg width="30" height="30" viewBox="0 0 30 30" fill="none" xmlns="http://www.w3.org/2000/svg">
<path d="M24 11.25C24.7956 11.25 25.5587 10.9208 26.1213 10.3347C26.6839 9.74866 27 8.9538 27 8.125C27 7.2962 26.6839 6.50134 26.1213 5.91529C25.5587 5.32924 24.7956 5 24 5C23.2044 5 22.4413 5.32924 21.8787 5.91529C21.3161 6.50134 21 7.2962 21 8.125C21 8.9538 21.3161 9.74866 21.8787 10.3347C22.4413 10.9208 23.2044 11.25 24 11.25ZM5.09625 25H17.2913H20.1038H24.7088C25.9763 25 27 23.9297 27 22.6133C27 22.1758 26.8837 21.7461 26.6662 21.3711L21.7163 12.9219C21.5625 12.6602 21.2925 12.5 21 12.5C20.7075 12.5 20.4375 12.6602 20.2837 12.918L18.4763 16.0039L13.755 8.16406C13.5075 7.75 13.0688 7.5 12.6 7.5C12.1313 7.5 11.6962 7.75 11.445 8.16406L3.3225 21.6563C3.1125 22.0039 3 22.4063 3 22.8164C3 24.0234 3.9375 25 5.09625 25Z" fill="#07195F"/>
</svg>
