<svg width="30" height="30" viewBox="0 0 30 30" fill="none" xmlns="http://www.w3.org/2000/svg">
<path d="M12.1173 13.3066L13.5087 24.2062C13.6642 25.424 12.6944 26.4997 11.4411 26.4997C10.3902 26.4997 9.50374 25.7335 9.37337 24.7124L7.94922 13.5564" fill="#07195F"/>
<path d="M12.1173 13.3066L13.5087 24.2062C13.6642 25.424 12.6944 26.4997 11.4411 26.4997C10.3902 26.4997 9.50374 25.7335 9.37337 24.7124L7.94922 13.5564" stroke="#07195F" stroke-width="2" stroke-linecap="round" stroke-linejoin="round"/>
<path d="M8.39995 3C5.41764 3 3 5.3673 3 8.28751C3 11.0586 5.17697 13.3317 7.94761 13.5567C8.09677 13.5688 8.24761 13.575 8.39995 13.575C9.34674 13.575 10.6436 13.4721 12.1157 13.307L19.5577 12.1191L26.9998 10.9313V5.64375L17.6999 4.32188L8.39995 3Z" fill="#07195F" stroke="#07195F" stroke-width="2" stroke-linecap="round" stroke-linejoin="round"/>
<path d="M22.7988 5.46777V11.1071" stroke="#F6FAF9" stroke-width="2" stroke-linecap="round" stroke-linejoin="round"/>
<path d="M27.0006 10.9316L19.5586 12.1195" stroke="#07195F" stroke-width="2" stroke-linecap="round" stroke-linejoin="round"/>
<path d="M27.0011 5.64414L17.7012 4.32227" stroke="#07195F" stroke-width="2" stroke-linecap="round" stroke-linejoin="round"/>
<path d="M10.1996 8.28789C10.1996 9.26132 9.39372 10.0504 8.39959 10.0504C7.40546 10.0504 6.59961 9.26132 6.59961 8.28789C6.59961 7.31446 7.40546 6.52539 8.39959 6.52539C9.39372 6.52539 10.1996 7.31446 10.1996 8.28789Z" fill="#F6FAF9"/>
</svg>
